<svg width="30" height="30" viewBox="0 0 30 30" fill="none" xmlns="http://www.w3.org/2000/svg">
<g clip-path="url(#clip0_288_11423)">
<circle opacity="0.6" cx="15.1304" cy="14.52" r="14.52" fill="#2F74FF"/>
</g>
<path d="M9.31343 18.686H11.1322C11.35 18.686 11.5257 18.6192 11.6593 18.4856C11.793 18.3519 11.8598 18.1812 11.8598 17.9733V16.5999C11.8598 16.3871 11.793 16.2164 11.6593 16.0877C11.5257 15.9541 11.35 15.8873 11.1322 15.8873H9.31343C9.09567 15.8873 8.91998 15.9541 8.78635 16.0877C8.65272 16.2164 8.58591 16.3871 8.58591 16.5999V17.9733C8.58591 18.1812 8.65272 18.3519 8.78635 18.4856C8.91998 18.6192 9.09567 18.686 9.31343 18.686ZM6.27713 12.9846H23.7229V11.2994H6.27713V12.9846ZM8.60818 20.9874C7.83117 20.9874 7.24717 20.7943 6.85618 20.4083C6.47015 20.0272 6.27713 19.4556 6.27713 18.6934V10.609C6.27713 9.84188 6.47015 9.26778 6.85618 8.8867C7.24717 8.50067 7.83117 8.30765 8.60818 8.30765H21.3918C22.1688 8.30765 22.7504 8.50067 23.1364 8.8867C23.5274 9.27273 23.7229 9.84683 23.7229 10.609V18.6934C23.7229 19.4556 23.5274 20.0272 23.1364 20.4083C22.7504 20.7943 22.1688 20.9874 21.3918 20.9874H8.60818Z" fill="white"/>
<defs>
<clipPath id="clip0_288_11423">
<rect width="29.04" height="29.04" fill="white" transform="translate(0.610352)"/>
</clipPath>
</defs>
</svg>
