<svg width="30" height="30" viewBox="0 0 30 30" fill="none" xmlns="http://www.w3.org/2000/svg">
<g clip-path="url(#clip0_176_3386)">
<circle opacity="0.6" cx="15.1349" cy="14.7051" r="14.52" fill="#2F74FF"/>
</g>
<path d="M18.69 15.8925L19.1209 14.8471C20.3924 15.1626 21.3908 15.5982 22.116 16.1539C22.8459 16.7049 23.2109 17.3336 23.2109 18.04C23.2109 18.5956 22.9872 19.1019 22.5398 19.5587C22.0924 20.0155 21.459 20.4111 20.6396 20.7454C19.8202 21.0798 18.8501 21.3364 17.7293 21.5154C16.6085 21.6943 15.377 21.7838 14.0349 21.7838C12.6928 21.7838 11.4613 21.6943 10.3405 21.5154C9.22441 21.3364 8.25666 21.0798 7.43725 20.7454C6.61784 20.4111 5.9821 20.0155 5.53001 19.5587C5.08263 19.1019 4.85894 18.5956 4.85894 18.04C4.85894 17.3477 5.20507 16.7308 5.89733 16.1892C6.58959 15.6477 7.54557 15.2168 8.76526 14.8965L9.30212 15.8996C8.61457 16.0691 8.01885 16.2669 7.51496 16.493C7.01578 16.719 6.62962 16.9639 6.35648 17.2276C6.08805 17.4866 5.95384 17.7574 5.95384 18.04C5.95384 18.3837 6.15869 18.7157 6.5684 19.036C6.9781 19.3515 7.55028 19.634 8.28492 19.8836C9.01956 20.1332 9.87664 20.3286 10.8562 20.4699C11.8357 20.6159 12.8953 20.6889 14.0349 20.6889C15.1746 20.6889 16.2341 20.6159 17.2137 20.4699C18.1932 20.3286 19.0503 20.1332 19.7849 19.8836C20.5195 19.634 21.0917 19.3515 21.5014 19.036C21.9111 18.7157 22.116 18.3837 22.116 18.04C22.116 17.7574 21.9771 17.4843 21.6992 17.2205C21.4214 16.9521 21.0258 16.7049 20.5125 16.4788C19.9992 16.2528 19.3917 16.0574 18.69 15.8925ZM19.3258 10.9902H20.463V12.4666C20.463 13.3849 20.3171 14.2278 20.0251 14.9954C19.7331 15.7583 19.3163 16.42 18.7748 16.9804C18.2379 17.5361 17.5951 17.967 16.8463 18.2731C16.1023 18.5792 15.2734 18.7322 14.3598 18.7322H13.7029C12.794 18.7322 11.9652 18.5792 11.2164 18.2731C10.4724 17.967 9.82955 17.5361 9.28799 16.9804C8.75113 16.42 8.33672 15.7583 8.04475 14.9954C7.75277 14.2325 7.60679 13.3896 7.60679 12.4666V10.9902H8.74407V12.4666C8.74407 13.4885 8.94657 14.3856 9.35156 15.1579C9.76127 15.9255 10.3358 16.5236 11.0751 16.9521C11.8192 17.3807 12.6951 17.5949 13.7029 17.5949H14.3598C15.3676 17.5949 16.2412 17.3807 16.9805 16.9521C17.7246 16.5189 18.3015 15.9184 18.7112 15.1508C19.1209 14.3785 19.3258 13.4838 19.3258 12.4666V10.9902ZM14.0349 13.9005C12.7587 13.9005 11.6379 13.7781 10.6725 13.5332C9.70711 13.2883 8.95363 12.9493 8.41207 12.516C7.87521 12.078 7.60679 11.5694 7.60679 10.9902C7.60679 10.411 7.87521 9.90237 8.41207 9.46441C8.95363 9.02645 9.70476 8.68503 10.6654 8.44015C11.6308 8.19527 12.754 8.07283 14.0349 8.07283C15.3111 8.07283 16.4319 8.19527 17.3973 8.44015C18.3627 8.68503 19.1138 9.02645 19.6507 9.46441C20.1923 9.90237 20.463 10.411 20.463 10.9902C20.463 11.5694 20.1923 12.078 19.6507 12.516C19.1138 12.9493 18.3627 13.2883 17.3973 13.5332C16.4319 13.7781 15.3111 13.9005 14.0349 13.9005ZM14.0349 12.7632C14.7978 12.7632 15.4995 12.7185 16.1399 12.629C16.7851 12.5396 17.3455 12.4148 17.8211 12.2546C18.2968 12.0898 18.6665 11.9014 18.9302 11.6895C19.1939 11.4729 19.3258 11.2398 19.3258 10.9902C19.3258 10.7406 19.1939 10.5075 18.9302 10.2909C18.6665 10.0743 18.2968 9.88589 17.8211 9.72577C17.3455 9.56566 16.7851 9.44086 16.1399 9.35139C15.4995 9.2572 14.7978 9.21011 14.0349 9.21011C13.272 9.21011 12.568 9.2572 11.9228 9.35139C11.2824 9.44086 10.7243 9.56566 10.2487 9.72577C9.77304 9.88589 9.40337 10.0743 9.13965 10.2909C8.87593 10.5075 8.74407 10.7406 8.74407 10.9902C8.74407 11.2398 8.87593 11.4729 9.13965 11.6895C9.40337 11.9014 9.77304 12.0898 10.2487 12.2546C10.7243 12.4148 11.2824 12.5396 11.9228 12.629C12.568 12.7185 13.272 12.7632 14.0349 12.7632ZM19.6719 15.5182V14.3809H20.2511C20.7079 14.3809 21.0658 14.2796 21.3248 14.0771C21.5838 13.8746 21.7133 13.5968 21.7133 13.2436C21.7133 12.8904 21.5838 12.6149 21.3248 12.4171C21.0658 12.2146 20.7079 12.1134 20.2511 12.1134H19.7778V10.9761H20.2511C21.0564 10.9761 21.6898 11.1786 22.1513 11.5836C22.6175 11.9886 22.8506 12.5419 22.8506 13.2436C22.8506 13.9547 22.6199 14.5127 22.1584 14.9177C21.6969 15.318 21.0611 15.5182 20.2511 15.5182H19.6719Z" fill="white"/>
<defs>
<clipPath id="clip0_176_3386">
<rect width="29.04" height="29.04" fill="white" transform="translate(0.614868 0.185059)"/>
</clipPath>
</defs>
</svg>
