<svg width="30" height="30" viewBox="0 0 30 30" fill="none" xmlns="http://www.w3.org/2000/svg">
<g clip-path="url(#clip0_288_11424)">
<circle opacity="0.6" cx="14.9355" cy="14.52" r="14.52" fill="#2F74FF"/>
</g>
<path d="M11.8437 10.093C12.0501 10.093 12.2288 10.1484 12.3798 10.2591C12.5358 10.3649 12.6617 10.5033 12.7573 10.6745C12.848 10.5033 12.9713 10.3649 13.1273 10.2591C13.2834 10.1484 13.4571 10.093 13.6484 10.093C13.9655 10.093 14.2273 10.2013 14.4337 10.4177C14.6401 10.6342 14.7433 10.9085 14.7433 11.2408C14.7433 11.4874 14.6854 11.7266 14.5696 11.9581C14.4588 12.1897 14.3129 12.4087 14.1316 12.6151C13.9504 12.8215 13.7541 13.0102 13.5426 13.1814C13.3363 13.3475 13.1374 13.4885 12.9461 13.6043C12.9109 13.6294 12.8782 13.6521 12.848 13.6722C12.8177 13.6873 12.7901 13.6949 12.7649 13.6949C12.7397 13.6949 12.7095 13.6873 12.6743 13.6722C12.639 13.6521 12.6038 13.6294 12.5686 13.6043C12.3823 13.4784 12.1835 13.3299 11.972 13.1587C11.7656 12.9876 11.5693 12.8013 11.383 12.6C11.2018 12.3936 11.0533 12.1771 10.9375 11.9506C10.8218 11.724 10.7639 11.4874 10.7639 11.2408C10.7639 10.9085 10.8645 10.6342 11.0659 10.4177C11.2723 10.2013 11.5316 10.093 11.8437 10.093ZM11.2396 16.0584C11.1037 16.0584 10.9904 16.013 10.8998 15.9224C10.8092 15.8318 10.7639 15.7211 10.7639 15.5902C10.7639 15.4593 10.8092 15.3511 10.8998 15.2655C10.9904 15.1749 11.1037 15.1296 11.2396 15.1296H18.6774C18.8082 15.1296 18.919 15.1749 19.0096 15.2655C19.1002 15.3511 19.1455 15.4593 19.1455 15.5902C19.1455 15.7211 19.1002 15.8318 19.0096 15.9224C18.919 16.013 18.8082 16.0584 18.6774 16.0584H11.2396ZM11.2396 18.6408C11.1037 18.6408 10.9904 18.598 10.8998 18.5124C10.8092 18.4218 10.7639 18.3111 10.7639 18.1802C10.7639 18.0493 10.8092 17.9386 10.8998 17.848C10.9904 17.7573 11.1037 17.712 11.2396 17.712H16.6914C16.8223 17.712 16.9331 17.7573 17.0237 17.848C17.1143 17.9386 17.1596 18.0493 17.1596 18.1802C17.1596 18.3111 17.1143 18.4218 17.0237 18.5124C16.9331 18.598 16.8223 18.6408 16.6914 18.6408H11.2396ZM10.4165 21.5102C9.62617 21.5102 9.03215 21.3139 8.63446 20.9212C8.24181 20.5336 8.04548 19.9497 8.04548 19.1694V9.94955C8.04548 9.16927 8.24181 8.58533 8.63446 8.19771C9.03215 7.80505 9.62617 7.60872 10.4165 7.60872H19.5759C20.3663 7.60872 20.9578 7.80505 21.3504 8.19771C21.7481 8.58533 21.947 9.16927 21.947 9.94955V19.1694C21.947 19.9497 21.7481 20.5336 21.3504 20.9212C20.9578 21.3139 20.3663 21.5102 19.5759 21.5102H10.4165ZM10.4316 20.2945H19.5608C19.9334 20.2945 20.2203 20.1963 20.4217 20C20.6281 19.7986 20.7312 19.5016 20.7312 19.109V10.01C20.7312 9.6173 20.6281 9.32281 20.4217 9.12649C20.2203 8.92512 19.9334 8.82444 19.5608 8.82444H10.4316C10.0541 8.82444 9.7646 8.92512 9.56324 9.12649C9.36188 9.32281 9.2612 9.6173 9.2612 10.01V19.109C9.2612 19.5016 9.36188 19.7986 9.56324 20C9.7646 20.1963 10.0541 20.2945 10.4316 20.2945Z" fill="white"/>
<defs>
<clipPath id="clip0_288_11424">
<rect width="29.04" height="29.04" fill="white" transform="translate(0.415527)"/>
</clipPath>
</defs>
</svg>
