<svg width="30" height="30" viewBox="0 0 30 30" fill="none" xmlns="http://www.w3.org/2000/svg">
<g clip-path="url(#clip0_176_3392)">
<circle opacity="0.6" cx="15.4149" cy="14.7051" r="14.52" fill="#2F74FF"/>
</g>
<path d="M10.497 23.1592C9.63304 23.1592 8.9837 22.9446 8.54898 22.5153C8.11975 22.0916 7.90514 21.4533 7.90514 20.6003V12.0571C7.90514 11.2041 8.11975 10.5658 8.54898 10.1421C8.9837 9.71286 9.63304 9.49825 10.497 9.49825H19.9647C20.8232 9.49825 21.4698 9.71286 21.9045 10.1421C22.3392 10.5658 22.5566 11.2041 22.5566 12.0571V20.6003C22.5566 21.4533 22.3502 22.0916 21.9375 22.5153C21.5248 22.9446 20.9497 23.1592 20.2123 23.1592H10.497ZM10.5135 21.8302H20.1876C20.4737 21.8302 20.7186 21.7202 20.9222 21.5001C21.1258 21.2854 21.2276 20.9635 21.2276 20.5343V12.1231C21.2276 11.6939 21.1148 11.372 20.8892 11.1574C20.6636 10.9373 20.3472 10.8272 19.94 10.8272H10.5135C10.1008 10.8272 9.78437 10.9373 9.56426 11.1574C9.34414 11.372 9.23409 11.6939 9.23409 12.1231V20.5343C9.23409 20.9635 9.34414 21.2854 9.56426 21.5001C9.78437 21.7202 10.1008 21.8302 10.5135 21.8302ZM11.9745 9.82017C11.9745 9.20935 12.1176 8.65906 12.4037 8.1693C12.6899 7.67404 13.0779 7.28059 13.5676 6.98893C14.0574 6.69728 14.6104 6.55145 15.2267 6.55145C15.8431 6.55145 16.3961 6.69728 16.8859 6.98893C17.3811 7.28059 17.7718 7.67404 18.058 8.1693C18.3441 8.65906 18.4872 9.20935 18.4872 9.82017L17.1582 9.82842C17.1582 9.43222 17.0757 9.08278 16.9106 8.78012C16.751 8.47746 16.5254 8.24084 16.2338 8.07025C15.9476 7.89416 15.6119 7.80611 15.2267 7.80611C14.847 7.80611 14.5114 7.89416 14.2197 8.07025C13.9336 8.24084 13.7079 8.47746 13.5428 8.78012C13.3833 9.08278 13.3035 9.43222 13.3035 9.82842L11.9745 9.82017Z" fill="white"/>
<defs>
<clipPath id="clip0_176_3392">
<rect width="29.04" height="29.04" fill="white" transform="translate(0.894897 0.185059)"/>
</clipPath>
</defs>
</svg>
