<svg width="30" height="30" viewBox="0 0 30 30" fill="none" xmlns="http://www.w3.org/2000/svg">
<g clip-path="url(#clip0_176_3396)">
<circle opacity="0.6" cx="14.5552" cy="14.7051" r="14.52" fill="#2F74FF"/>
</g>
<path d="M6.12677 16.517V13.2299C6.12677 12.7588 6.27195 12.378 6.56232 12.0877C6.85816 11.7973 7.24439 11.6521 7.72102 11.6521H11.4437V7.93769C11.4437 7.46106 11.5889 7.07757 11.8792 6.7872C12.1696 6.49136 12.5503 6.34344 13.0215 6.34344H16.3086C16.7797 6.34344 17.1605 6.49136 17.4509 6.7872C17.7412 7.07757 17.8864 7.46106 17.8864 7.93769V11.6521H21.6091C22.0857 11.6521 22.4692 11.7973 22.7595 12.0877C23.0554 12.378 23.2033 12.7588 23.2033 13.2299V16.517C23.2033 16.9882 23.0554 17.369 22.7595 17.6593C22.4692 17.9497 22.0857 18.0949 21.6091 18.0949H17.8864V21.8175C17.8864 22.2941 17.7412 22.6776 17.4509 22.968C17.1605 23.2638 16.7797 23.4118 16.3086 23.4118H13.0215C12.5503 23.4118 12.1696 23.2638 11.8792 22.968C11.5889 22.6776 11.4437 22.2941 11.4437 21.8175V18.0949H7.72924C7.25261 18.0949 6.86637 17.9497 6.57053 17.6593C6.27469 17.369 6.12677 16.9882 6.12677 16.517Z" fill="white"/>
<defs>
<clipPath id="clip0_176_3396">
<rect width="29.04" height="29.04" fill="white" transform="translate(0.0351562 0.185059)"/>
</clipPath>
</defs>
</svg>
