<svg width="30" height="32" viewBox="0 0 30 32" fill="none" xmlns="http://www.w3.org/2000/svg">
<g clip-path="url(#clip0_288_11421)">
<circle opacity="0.6" cx="14.7148" cy="16.52" r="14.52" fill="#2F74FF"/>
</g>
<path d="M15.0335 21.1384C14.3638 21.1384 13.7344 21.0335 13.1451 20.8237C12.5603 20.6138 12.0625 20.3103 11.6518 19.9129C11.2411 19.5156 10.9665 19.0379 10.8281 18.4799C10.7969 18.3594 10.7813 18.2478 10.7813 18.1451C10.7813 17.9487 10.8348 17.7902 10.942 17.6696C11.0491 17.5491 11.2009 17.4888 11.3973 17.4888C11.5625 17.4888 11.7009 17.5357 11.8125 17.6295C11.9241 17.7187 12.0089 17.8504 12.067 18.0246C12.1741 18.4442 12.3594 18.7969 12.6228 19.0826C12.8906 19.3683 13.2277 19.5848 13.6339 19.7321C14.0402 19.8795 14.5112 19.9531 15.0469 19.9531C15.6451 19.9531 16.1585 19.8728 16.5871 19.7121C17.0156 19.5469 17.3415 19.3125 17.5647 19.0089C17.7924 18.7009 17.9063 18.3326 17.9063 17.904C17.9063 17.3638 17.7277 16.9353 17.3705 16.6183C17.0179 16.3013 16.4241 16.0424 15.5893 15.8415L14.317 15.5402C13.1964 15.2679 12.3683 14.8795 11.8326 14.375C11.2969 13.8661 11.029 13.2165 11.029 12.4263C11.029 11.7879 11.1987 11.2277 11.5379 10.7455C11.8817 10.2634 12.3549 9.88616 12.9576 9.61384C13.5603 9.34152 14.25 9.20536 15.0268 9.20536C15.683 9.20536 16.2835 9.3125 16.8281 9.52679C17.3772 9.74107 17.8371 10.0424 18.2076 10.4308C18.5826 10.8192 18.8371 11.2701 18.971 11.7835C18.9888 11.846 19 11.9062 19.0045 11.9643C19.0134 12.0179 19.0179 12.0714 19.0179 12.125C19.0179 12.317 18.9643 12.4732 18.8571 12.5937C18.75 12.7098 18.5982 12.7679 18.4018 12.7679C18.067 12.7679 17.8438 12.5915 17.7321 12.2388C17.6071 11.8371 17.4196 11.5 17.1696 11.2277C16.9241 10.9509 16.6205 10.7433 16.2589 10.6049C15.8973 10.4621 15.4866 10.3906 15.0268 10.3906C14.4598 10.3906 13.9754 10.4799 13.5737 10.6585C13.1719 10.8371 12.8638 11.0759 12.6496 11.375C12.4397 11.6696 12.3348 11.9933 12.3348 12.346C12.3348 12.8326 12.5112 13.2366 12.8638 13.558C13.221 13.875 13.7723 14.1228 14.5179 14.3013L15.7902 14.6027C16.9732 14.8884 17.8393 15.2879 18.3884 15.8013C18.9375 16.3147 19.2121 16.9844 19.2121 17.8103C19.2121 18.5246 19.0201 19.1295 18.6362 19.625C18.2567 20.1205 17.75 20.4955 17.1161 20.75C16.4821 21.0089 15.7879 21.1384 15.0335 21.1384ZM15 22.7522C14.8616 22.7522 14.7433 22.7031 14.6451 22.6049C14.5469 22.5067 14.4978 22.3862 14.4978 22.2433V8.14062C14.4978 8.00223 14.5469 7.88393 14.6451 7.78571C14.7433 7.6875 14.8616 7.63839 15 7.63839C15.1429 7.63839 15.2634 7.6875 15.3616 7.78571C15.4598 7.88393 15.5089 8.00223 15.5089 8.14062V22.2433C15.5089 22.3862 15.4598 22.5067 15.3616 22.6049C15.2634 22.7031 15.1429 22.7522 15 22.7522Z" fill="white"/>
<defs>
<clipPath id="clip0_288_11421">
<rect width="29.04" height="29.04" fill="white" transform="translate(0.194824 2)"/>
</clipPath>
</defs>
</svg>
