<svg width="30" height="30" viewBox="0 0 30 30" fill="none" xmlns="http://www.w3.org/2000/svg">
<g clip-path="url(#clip0_252_11194)">
<circle opacity="0.6" cx="14.52" cy="14.52" r="14.52" fill="#2F74FF"/>
</g>
<path d="M13.9697 16.8713C13.7324 16.8713 13.5544 16.8028 13.4358 16.6659C13.3171 16.5244 13.2578 16.3442 13.2578 16.1252C13.2578 16.0521 13.2578 15.9814 13.2578 15.913C13.2578 15.84 13.2578 15.7669 13.2578 15.6939C13.2578 15.2924 13.3376 14.9319 13.4974 14.6124C13.6571 14.2885 13.8761 13.9918 14.1545 13.7226C14.4374 13.4534 14.7591 13.1933 15.1196 12.9423C15.4116 12.737 15.6695 12.5339 15.8931 12.3331C16.1167 12.1278 16.2901 11.9042 16.4133 11.6623C16.541 11.4159 16.6049 11.1284 16.6049 10.7999C16.6049 10.4029 16.4977 10.0583 16.2832 9.76629C16.0733 9.47425 15.7881 9.25065 15.4276 9.0955C15.0717 8.93578 14.6701 8.85593 14.2229 8.85593C13.8579 8.85593 13.5202 8.91525 13.2099 9.03389C12.9041 9.15254 12.6395 9.34419 12.4159 9.60886C12.1968 9.86897 12.028 10.2158 11.9094 10.6493C11.8592 10.8181 11.7747 10.9505 11.6561 11.0463C11.542 11.1421 11.3983 11.19 11.2249 11.19C11.015 11.19 10.8552 11.1284 10.7457 11.0052C10.6362 10.882 10.5815 10.7223 10.5815 10.5261C10.5815 10.3937 10.5974 10.2523 10.6294 10.1017C10.6613 9.94654 10.7138 9.78911 10.7868 9.6294C10.9785 9.19133 11.25 8.81942 11.6013 8.51369C11.9527 8.20795 12.3566 7.97522 12.8129 7.81551C13.2692 7.6558 13.7552 7.57594 14.2708 7.57594C14.9644 7.57594 15.5942 7.70371 16.16 7.95925C16.7304 8.21023 17.1822 8.57757 17.5153 9.06127C17.853 9.54041 18.0218 10.1222 18.0218 10.8067C18.0218 11.4684 17.8484 12.0411 17.5016 12.5248C17.1548 13.0039 16.6871 13.442 16.0984 13.839C15.7333 14.09 15.4481 14.3113 15.2428 14.5029C15.0375 14.6946 14.8914 14.8954 14.8047 15.1053C14.718 15.3152 14.6724 15.5707 14.6678 15.8719C14.6678 15.9084 14.6678 15.9472 14.6678 15.9883C14.6678 16.0248 14.6678 16.0636 14.6678 16.1046C14.6678 16.3237 14.6108 16.5062 14.4967 16.6522C14.3826 16.7982 14.2069 16.8713 13.9697 16.8713ZM13.9697 20.6154C13.7917 20.6154 13.6297 20.572 13.4837 20.4853C13.3376 20.3986 13.219 20.28 13.1277 20.1294C13.041 19.9834 12.9977 19.8214 12.9977 19.6434C12.9977 19.4655 13.041 19.3012 13.1277 19.1506C13.219 19.0046 13.3376 18.8882 13.4837 18.8015C13.6297 18.7148 13.7917 18.6714 13.9697 18.6714C14.1522 18.6714 14.3165 18.7148 14.4625 18.8015C14.6131 18.8882 14.7317 19.0046 14.8184 19.1506C14.9051 19.3012 14.9485 19.4655 14.9485 19.6434C14.9485 19.8214 14.9051 19.9834 14.8184 20.1294C14.7317 20.28 14.6131 20.3986 14.4625 20.4853C14.3165 20.572 14.1522 20.6154 13.9697 20.6154Z" fill="white"/>
<defs>
<clipPath id="clip0_252_11194">
<rect width="29.04" height="29.04" fill="white"/>
</clipPath>
</defs>
</svg>
