<svg width="30" height="30" viewBox="0 0 30 30" fill="none" xmlns="http://www.w3.org/2000/svg">
<g clip-path="url(#clip0_288_11422)">
<circle opacity="0.6" cx="14.52" cy="14.52" r="14.52" fill="#2F74FF"/>
</g>
<path d="M17.6742 21.1209C17.7725 20.9569 17.8463 20.7807 17.8955 20.5922C17.9487 20.4078 17.9754 20.2111 17.9754 20.002V11.039H21.2213C21.5327 11.039 21.7786 11.1415 21.959 11.3464C22.1434 11.5472 22.2356 11.8177 22.2356 12.1578V20.002C22.2356 20.3422 22.1434 20.6127 21.959 20.8135C21.7786 21.0184 21.5327 21.1209 21.2213 21.1209H17.6742ZM19.3709 14.1496C19.3709 14.2972 19.4426 14.3709 19.586 14.3709H20.6065C20.7499 14.3709 20.8217 14.2972 20.8217 14.1496V13.166C20.8217 13.0226 20.7499 12.9509 20.6065 12.9509H19.586C19.4426 12.9509 19.3709 13.0226 19.3709 13.166V14.1496ZM19.3709 16.5717C19.3709 16.7152 19.4426 16.7869 19.586 16.7869H20.6065C20.7499 16.7869 20.8217 16.7152 20.8217 16.5717V15.5881C20.8217 15.4447 20.7499 15.373 20.6065 15.373H19.586C19.4426 15.373 19.3709 15.4447 19.3709 15.5881V16.5717ZM19.3709 18.9939C19.3709 19.1373 19.4426 19.209 19.586 19.209H20.6065C20.7499 19.209 20.8217 19.1373 20.8217 18.9939V18.0103C20.8217 17.8627 20.7499 17.7889 20.6065 17.7889H19.586C19.4426 17.7889 19.3709 17.8627 19.3709 18.0103V18.9939ZM7.76441 20.002V9.13328C7.76441 8.78902 7.85457 8.51649 8.0349 8.31567C8.21932 8.11485 8.46932 8.01444 8.78489 8.01444H16.1127C16.4283 8.01444 16.6762 8.11485 16.8565 8.31567C17.041 8.51649 17.1332 8.78902 17.1332 9.13328V20.002C17.1332 20.3422 17.041 20.6127 16.8565 20.8135C16.6762 21.0184 16.4283 21.1209 16.1127 21.1209H8.78489C8.46932 21.1209 8.21932 21.0184 8.0349 20.8135C7.85457 20.6127 7.76441 20.3422 7.76441 20.002ZM10.3218 20.1311H14.6312V18.1332C14.6312 17.9898 14.5881 17.8771 14.5021 17.7951C14.4201 17.709 14.3074 17.666 14.1639 17.666H10.789C10.6496 17.666 10.5369 17.709 10.4509 17.7951C10.3648 17.8771 10.3218 17.9898 10.3218 18.1332V20.1311ZM10.1189 11.3156C10.1189 11.4919 10.2029 11.58 10.3709 11.58H11.6004C11.7767 11.58 11.8648 11.4919 11.8648 11.3156V10.123C11.8648 9.9468 11.7767 9.85869 11.6004 9.85869H10.3709C10.2029 9.85869 10.1189 9.9468 10.1189 10.123V11.3156ZM13.0881 11.3156C13.0881 11.4919 13.1742 11.58 13.3463 11.58H14.5697C14.7459 11.58 14.834 11.4919 14.834 11.3156V10.123C14.834 9.9468 14.7459 9.85869 14.5697 9.85869H13.3463C13.1742 9.85869 13.0881 9.9468 13.0881 10.123V11.3156ZM10.1189 13.8238C10.1189 14 10.2029 14.0882 10.3709 14.0882H11.6004C11.7767 14.0882 11.8648 14 11.8648 13.8238V12.6312C11.8648 12.455 11.7767 12.3669 11.6004 12.3669H10.3709C10.2029 12.3669 10.1189 12.455 10.1189 12.6312V13.8238ZM13.0881 13.8238C13.0881 14 13.1742 14.0882 13.3463 14.0882H14.5697C14.7459 14.0882 14.834 14 14.834 13.8238V12.6312C14.834 12.455 14.7459 12.3669 14.5697 12.3669H13.3463C13.1742 12.3669 13.0881 12.455 13.0881 12.6312V13.8238ZM10.1189 16.332C10.1189 16.5082 10.2029 16.5963 10.3709 16.5963H11.6004C11.7767 16.5963 11.8648 16.5082 11.8648 16.332V15.1394C11.8648 14.9632 11.7767 14.875 11.6004 14.875H10.3709C10.2029 14.875 10.1189 14.9632 10.1189 15.1394V16.332ZM13.0881 16.332C13.0881 16.5082 13.1742 16.5963 13.3463 16.5963H14.5697C14.7459 16.5963 14.834 16.5082 14.834 16.332V15.1394C14.834 14.9632 14.7459 14.875 14.5697 14.875H13.3463C13.1742 14.875 13.0881 14.9632 13.0881 15.1394V16.332Z" fill="white"/>
<defs>
<clipPath id="clip0_288_11422">
<rect width="29.04" height="29.04" fill="white"/>
</clipPath>
</defs>
</svg>
