<svg width="30" height="30" viewBox="0 0 30 30" fill="none" xmlns="http://www.w3.org/2000/svg">
<g clip-path="url(#clip0_176_3380)">
<circle opacity="0.6" cx="14.995" cy="14.7051" r="14.52" fill="#2F74FF"/>
</g>
<path d="M15.2278 16.8225C14.1723 16.8225 13.247 16.6249 12.4519 16.2298C11.6615 15.8346 11.0471 15.2828 10.6085 14.5743C10.17 13.8611 9.95069 13.0274 9.95069 12.0732C9.95069 11.5768 10.0133 11.0442 10.1386 10.4756C10.2688 9.90209 10.4471 9.33583 10.6736 8.7768C10.9049 8.21294 11.1724 7.69729 11.476 7.22982C11.6928 6.89729 12.129 6.64187 12.7844 6.46356C13.4446 6.28525 14.2615 6.19609 15.235 6.19609C16.2037 6.19609 17.0157 6.28525 17.6711 6.46356C18.3313 6.64187 18.7675 6.89729 18.9795 7.22982C19.2831 7.69729 19.5506 8.21294 19.7819 8.7768C20.0133 9.33583 20.194 9.90209 20.3241 10.4756C20.4542 11.0442 20.5193 11.5768 20.5193 12.0732C20.5193 13.0274 20.2976 13.8611 19.8542 14.5743C19.4157 15.2828 18.7988 15.8346 18.0036 16.2298C17.2133 16.6249 16.288 16.8225 15.2278 16.8225ZM15.2278 15.731C16.0904 15.731 16.835 15.584 17.4615 15.29C18.088 14.9912 18.5723 14.5695 18.9145 14.0249C19.2566 13.4756 19.4277 12.825 19.4277 12.0732C19.4277 11.7117 19.3868 11.3238 19.3048 10.9093C19.2229 10.4949 19.1048 10.0756 18.9506 9.65149C18.8012 9.22739 18.6229 8.82017 18.4157 8.42981C18.1024 8.59848 17.6687 8.73101 17.1145 8.8274C16.5651 8.91896 15.9386 8.96475 15.235 8.96475C14.5217 8.96475 13.8904 8.91896 13.341 8.8274C12.7916 8.73101 12.3579 8.59848 12.0398 8.42981C11.8326 8.82017 11.6543 9.22739 11.5049 9.65149C11.3555 10.0756 11.2398 10.4949 11.1579 10.9093C11.0808 11.3238 11.0422 11.7117 11.0422 12.0732C11.0422 12.825 11.2109 13.4756 11.5483 14.0249C11.8904 14.5695 12.3748 14.9912 13.0013 15.29C13.6278 15.584 14.3699 15.731 15.2278 15.731ZM15.235 7.94548C15.7121 7.94548 16.1603 7.9262 16.5796 7.88765C16.9988 7.84909 17.3386 7.80331 17.5988 7.7503C17.8591 7.69247 17.9892 7.63464 17.9892 7.5768C17.9892 7.52861 17.8567 7.47801 17.5916 7.425C17.3314 7.36717 16.9916 7.31897 16.5723 7.28042C16.1531 7.24187 15.7073 7.22259 15.235 7.22259C14.7579 7.22259 14.3097 7.24187 13.8904 7.28042C13.4711 7.31897 13.1314 7.36717 12.8711 7.425C12.6109 7.47801 12.4808 7.52861 12.4808 7.5768C12.4808 7.63464 12.6085 7.69247 12.8639 7.7503C13.1242 7.80331 13.4615 7.84909 13.876 7.88765C14.2952 7.9262 14.7482 7.94548 15.235 7.94548ZM15.2278 21.6659C15.0832 21.6659 14.9579 21.6104 14.8519 21.4996C14.7458 21.3936 14.6928 21.2683 14.6928 21.1237V16.2514H15.7772V21.1237C15.7772 21.2683 15.7217 21.3936 15.6109 21.4996C15.5049 21.6104 15.3772 21.6659 15.2278 21.6659ZM15.2278 23.4152C13.9217 23.4104 12.8977 23.2538 12.1555 22.9454C11.4133 22.6417 11.0422 22.2104 11.0422 21.6514C11.0422 21.0972 11.4133 20.6659 12.1555 20.3574C12.8977 20.049 13.9217 19.8948 15.2278 19.8948C16.5386 19.8948 17.5651 20.049 18.3073 20.3574C19.0542 20.6659 19.4277 21.0972 19.4277 21.6514C19.4277 22.2056 19.0542 22.6369 18.3073 22.9454C17.5651 23.2538 16.5386 23.4104 15.2278 23.4152ZM15.2278 22.3526C15.8446 22.3526 16.3796 22.3213 16.8326 22.2586C17.2856 22.2008 17.6374 22.1189 17.888 22.0128C18.1386 21.9068 18.2639 21.7863 18.2639 21.6514C18.2639 21.5213 18.1386 21.4032 17.888 21.2972C17.6374 21.1912 17.2856 21.1068 16.8326 21.0442C16.3796 20.9815 15.8446 20.9502 15.2278 20.9502C14.6157 20.9502 14.0832 20.9815 13.6302 21.0442C13.1772 21.1068 12.8254 21.1912 12.5748 21.2972C12.329 21.4032 12.2061 21.5213 12.2061 21.6514C12.2061 21.7863 12.329 21.9068 12.5748 22.0128C12.8254 22.1189 13.1772 22.2008 13.6302 22.2586C14.0832 22.3213 14.6157 22.3526 15.2278 22.3526Z" fill="white"/>
<defs>
<clipPath id="clip0_176_3380">
<rect width="29.04" height="29.04" fill="white" transform="translate(0.474976 0.185059)"/>
</clipPath>
</defs>
</svg>
