<svg width="24" height="24" viewBox="0 0 24 24" fill="none" xmlns="http://www.w3.org/2000/svg">
<g clip-path="url(#clip0_176_3339)">
<circle opacity="0.6" cx="12" cy="12" r="12" fill="#2F74FF"/>
</g>
<path d="M9.55403 18.0591C9.31644 18.0591 9.12976 17.995 8.99399 17.8668C8.85823 17.7386 8.79223 17.5594 8.796 17.3294L8.90348 10.9767C8.90348 10.8786 8.88274 10.7938 8.84126 10.7221C8.79977 10.6467 8.73377 10.5901 8.64326 10.5524C8.39436 10.443 8.19071 10.3242 8.03232 10.196C7.8777 10.064 7.76644 9.8962 7.69856 9.69255C7.63068 9.4889 7.60428 9.22114 7.61936 8.88927L7.7721 5.41593C7.77964 5.29148 7.81736 5.19531 7.88524 5.12743C7.95312 5.05955 8.04552 5.02561 8.16243 5.02561C8.27557 5.02561 8.3623 5.06143 8.42264 5.13309C8.48676 5.20097 8.51881 5.29902 8.51881 5.42725L8.47921 8.80442C8.47921 9.01938 8.58481 9.12686 8.796 9.12686C8.89028 9.12686 8.96759 9.10046 9.02793 9.04767C9.09205 8.9911 9.1241 8.91567 9.1241 8.82139L9.18067 5.32542C9.18067 5.20474 9.21461 5.11046 9.28249 5.04258C9.35038 4.9747 9.44089 4.94075 9.55403 4.94075C9.67093 4.94075 9.76145 4.9747 9.82556 5.04258C9.89344 5.11046 9.92927 5.20474 9.93304 5.32542L9.98961 8.82139C9.98961 8.91567 10.0198 8.9911 10.0801 9.04767C10.1405 9.10046 10.2197 9.12686 10.3177 9.12686C10.4082 9.12686 10.4818 9.09858 10.5383 9.04201C10.5987 8.98544 10.6288 8.90624 10.6288 8.80442L10.5892 5.42725C10.5892 5.29902 10.6213 5.20097 10.6854 5.13309C10.7495 5.06143 10.8363 5.02561 10.9456 5.02561C11.1945 5.02561 11.3246 5.15572 11.3359 5.41593L11.4943 8.88927C11.5057 9.22114 11.4774 9.4889 11.4095 9.69255C11.3416 9.8962 11.2285 10.064 11.0701 10.196C10.9155 10.3242 10.7137 10.443 10.4648 10.5524C10.378 10.5901 10.3121 10.6467 10.2668 10.7221C10.2253 10.7938 10.2046 10.8786 10.2046 10.9767L10.3177 17.3294C10.3177 17.5594 10.2498 17.7386 10.1141 17.8668C9.97829 17.995 9.79162 18.0591 9.55403 18.0591ZM13.9834 13.1263C13.9872 13.0245 13.9645 12.934 13.9155 12.8548C13.8702 12.7718 13.7986 12.6945 13.7005 12.6228L13.3611 12.3966C13.2216 12.3023 13.116 12.1835 13.0443 12.0402C12.9727 11.8969 12.9369 11.7272 12.9369 11.531V11.2539C12.9369 10.6882 12.9727 10.1225 13.0443 9.55679C13.116 8.9911 13.2178 8.44615 13.3498 7.92194C13.4856 7.39396 13.6459 6.90936 13.8306 6.46812C14.0154 6.02311 14.221 5.64032 14.4472 5.31977C14.5415 5.18777 14.6283 5.09161 14.7075 5.03126C14.7867 4.97092 14.8791 4.94075 14.9847 4.94075C15.0902 4.94075 15.1845 4.97658 15.2675 5.04824C15.3505 5.11612 15.3919 5.22171 15.3919 5.36502V17.3633C15.3919 17.5896 15.3222 17.7612 15.1826 17.8781C15.0431 17.9988 14.8545 18.0591 14.617 18.0591C14.3831 18.0591 14.1965 17.9931 14.0569 17.8611C13.9174 17.7329 13.8514 17.5462 13.8589 17.3011L13.9834 13.1263Z" fill="white"/>
<defs>
<clipPath id="clip0_176_3339">
<rect width="24" height="24" fill="white"/>
</clipPath>
</defs>
</svg>
