<svg width="30" height="30" viewBox="0 0 30 30" fill="none" xmlns="http://www.w3.org/2000/svg">
<g clip-path="url(#clip0_176_3401)">
<circle opacity="0.6" cx="14.695" cy="14.7051" r="14.52" fill="#2F74FF"/>
</g>
<path d="M25.5406 14.3892C25.5406 14.7221 25.4028 15.0205 25.1274 15.2846C24.8519 15.5428 24.4845 15.7495 24.0254 15.9044C23.5662 16.0536 23.064 16.1283 22.5188 16.1283H19.0493C18.8083 16.1283 18.6246 16.1541 18.4984 16.2057C18.3778 16.2574 18.2458 16.3636 18.1023 16.5243L12.317 22.8433C12.1276 23.05 11.9067 23.1533 11.6541 23.1533H10.6555C10.5464 23.1533 10.4632 23.1102 10.4058 23.0241C10.3542 22.938 10.357 22.8347 10.4144 22.7142L13.3932 16.1283L9.01974 15.6289L7.4615 18.4871C7.34671 18.688 7.15157 18.7885 6.87608 18.7885H6.50589C6.39684 18.7885 6.30788 18.7569 6.239 18.6938C6.17013 18.6249 6.1357 18.5359 6.1357 18.4269V10.3515C6.1357 10.2368 6.17013 10.1478 6.239 10.0847C6.30788 10.0158 6.39684 9.98136 6.50589 9.98136H6.87608C7.15157 9.98136 7.34671 10.0847 7.4615 10.2913L9.01974 13.1495L13.3932 12.6502L10.4144 6.06422C10.357 5.94369 10.3542 5.84038 10.4058 5.75429C10.4632 5.6682 10.5464 5.62516 10.6555 5.62516H11.6541C11.9067 5.62516 12.1276 5.72846 12.317 5.93508L18.1023 12.2455C18.2458 12.4063 18.3778 12.5153 18.4984 12.5727C18.6246 12.6243 18.8083 12.6502 19.0493 12.6502H22.5188C23.064 12.6502 23.5662 12.7277 24.0254 12.8826C24.4845 13.0318 24.8519 13.2385 25.1274 13.5025C25.4028 13.7608 25.5406 14.0563 25.5406 14.3892Z" fill="white"/>
<defs>
<clipPath id="clip0_176_3401">
<rect width="29.04" height="29.04" fill="white" transform="translate(0.175049 0.185059)"/>
</clipPath>
</defs>
</svg>
