<svg width="30" height="30" viewBox="0 0 30 30" fill="none" xmlns="http://www.w3.org/2000/svg">
<g clip-path="url(#clip0_176_3383)">
<circle opacity="0.6" cx="15.275" cy="14.7051" r="14.52" fill="#2F74FF"/>
</g>
<path d="M9.64613 16.0908C9.21347 16.0908 8.82137 15.9894 8.46983 15.7866C8.1228 15.5792 7.84562 15.3021 7.63831 14.955C7.43099 14.6035 7.32733 14.2136 7.32733 13.7855V13.6706C7.32733 13.4137 7.39493 13.1703 7.53014 12.9404L9.32163 9.87801V9.3169C9.32163 8.88874 9.44557 8.55298 9.69345 8.30961C9.94584 8.06624 10.2906 7.94455 10.7278 7.94455H19.4689C19.9016 7.94455 20.2418 8.06624 20.4897 8.30961C20.7421 8.55298 20.8683 8.88874 20.8683 9.3169V9.87801L22.6598 12.9404C22.795 13.1703 22.8626 13.4137 22.8626 13.6706V13.7855C22.8626 14.2136 22.759 14.6035 22.5516 14.955C22.3488 15.3021 22.0717 15.5792 21.7201 15.7866C21.3686 15.9894 20.9765 16.0908 20.5438 16.0908C20.1697 16.0908 19.825 16.0119 19.5095 15.8542C19.194 15.6919 18.9348 15.4733 18.732 15.1984C18.5247 15.4733 18.2633 15.6919 17.9478 15.8542C17.6369 16.0119 17.2921 16.0908 16.9135 16.0908C16.5349 16.0908 16.1879 16.0096 15.8724 15.8474C15.5569 15.6851 15.2978 15.4688 15.095 15.1984C14.8922 15.4688 14.633 15.6851 14.3175 15.8474C14.002 16.0096 13.655 16.0908 13.2764 16.0908C12.9024 16.0908 12.5576 16.0119 12.2421 15.8542C11.9266 15.6919 11.6675 15.4733 11.4647 15.1984C11.2573 15.4733 10.9959 15.6919 10.6805 15.8542C10.3695 16.0119 10.0247 16.0908 9.64613 16.0908ZM10.3424 9.66844H19.8475V9.50619C19.8475 9.33493 19.8002 9.20197 19.7055 9.10733C19.6154 9.01268 19.4869 8.96536 19.3202 8.96536H10.8698C10.703 8.96536 10.5723 9.01268 10.4777 9.10733C10.3875 9.20197 10.3424 9.33493 10.3424 9.50619V9.66844ZM8.49687 13.2717H21.6796L20.172 10.6893H9.96387L8.49687 13.2717ZM8.34138 14.2249C8.418 14.4953 8.56673 14.7162 8.78757 14.8874C9.01291 15.0542 9.2991 15.1376 9.64613 15.1376C9.99316 15.1376 10.2771 15.0542 10.4979 14.8874C10.7233 14.7162 10.8743 14.4953 10.9509 14.2249H8.34138ZM11.9784 14.2249C12.0506 14.4953 12.197 14.7162 12.4179 14.8874C12.6432 15.0542 12.9294 15.1376 13.2764 15.1376C13.6235 15.1376 13.9097 15.0542 14.135 14.8874C14.3603 14.7162 14.5091 14.4953 14.5812 14.2249H11.9784ZM15.6088 14.2249C15.6854 14.4953 15.8341 14.7162 16.0549 14.8874C16.2803 15.0542 16.5665 15.1376 16.9135 15.1376C17.2605 15.1376 17.5445 15.0542 17.7653 14.8874C17.9907 14.7162 18.1416 14.4953 18.2183 14.2249H15.6088ZM19.2458 14.2249C19.3179 14.4953 19.4644 14.7162 19.6852 14.8874C19.9106 15.0542 20.1968 15.1376 20.5438 15.1376C20.8908 15.1376 21.177 15.0542 21.4024 14.8874C21.6277 14.7162 21.7764 14.4953 21.8486 14.2249H19.2458ZM10.0112 22.7632C9.52895 22.7632 9.15488 22.6325 8.88897 22.3711C8.62306 22.1097 8.49011 21.7424 8.49011 21.2692V15.5499L9.57853 15.5635V20.992C9.57853 21.2129 9.63486 21.3819 9.74753 21.499C9.86471 21.6162 10.0315 21.6748 10.2478 21.6748H19.9489C20.1652 21.6748 20.3297 21.6162 20.4424 21.499C20.5551 21.3819 20.6114 21.2129 20.6114 20.992V15.5702L21.6998 15.5297V21.2692C21.6998 21.7424 21.5669 22.1097 21.301 22.3711C21.0351 22.6325 20.661 22.7632 20.1788 22.7632H10.0112ZM10.6534 22.3171V17.8823C10.6534 17.729 10.7007 17.6051 10.7954 17.5104C10.8945 17.4158 11.0207 17.3685 11.174 17.3685H14.0404C14.1981 17.3685 14.322 17.4158 14.4122 17.5104C14.5068 17.6051 14.5541 17.729 14.5541 17.8823V22.3171H10.6534ZM15.8251 17.524C15.8251 17.3662 15.8724 17.2423 15.9671 17.1521C16.0617 17.0575 16.1879 17.0102 16.3456 17.0102H19.0903C19.2436 17.0102 19.3653 17.0575 19.4554 17.1521C19.55 17.2423 19.5974 17.3662 19.5974 17.524V19.4304C19.5974 19.5881 19.55 19.7143 19.4554 19.809C19.3653 19.8991 19.2436 19.9442 19.0903 19.9442H16.3456C16.1879 19.9442 16.0617 19.8991 15.9671 19.809C15.8724 19.7143 15.8251 19.5881 15.8251 19.4304V17.524Z" fill="white"/>
<defs>
<clipPath id="clip0_176_3383">
<rect width="29.04" height="29.04" fill="white" transform="translate(0.755005 0.185059)"/>
</clipPath>
</defs>
</svg>
