<svg width="30" height="30" viewBox="0 0 30 30" fill="none" xmlns="http://www.w3.org/2000/svg">
<g clip-path="url(#clip0_176_3377)">
<circle opacity="0.6" cx="14.8548" cy="14.7051" r="14.52" fill="#2F74FF"/>
</g>
<path d="M14.4586 15.6129C14.1863 15.6172 13.9077 15.5832 13.6227 15.5108C13.3419 15.4385 13.0314 15.3258 12.6911 15.1727L6.41232 12.3013C6.20388 12.2077 6.04649 12.0758 5.94014 11.9057C5.83804 11.7312 5.787 11.5483 5.787 11.3569C5.787 11.1697 5.83804 10.9911 5.94014 10.8209C6.04649 10.6465 6.20388 10.5125 6.41232 10.4189L12.6911 7.54753C13.0314 7.39439 13.3419 7.28166 13.6227 7.20935C13.9077 7.13703 14.1863 7.103 14.4586 7.10725C14.7308 7.103 15.0073 7.13703 15.2881 7.20935C15.5731 7.28166 15.8858 7.39439 16.2261 7.54753L22.5112 10.4189C22.7197 10.5125 22.8749 10.6465 22.977 10.8209C23.0834 10.9911 23.1366 11.1697 23.1366 11.3569C23.1366 11.5483 23.0834 11.7312 22.977 11.9057C22.8749 12.0758 22.7197 12.2077 22.5112 12.3013L16.2261 15.1727C15.8858 15.3258 15.5731 15.4385 15.2881 15.5108C15.0073 15.5832 14.7308 15.6172 14.4586 15.6129ZM14.4586 14.6048C14.6713 14.6048 14.8861 14.5771 15.1031 14.5218C15.3243 14.4623 15.571 14.3708 15.8432 14.2474L21.72 11.5739C21.8306 11.5228 21.8859 11.4505 21.8859 11.3569C21.8859 11.2676 21.8306 11.1974 21.72 11.1463L15.8432 8.47276C15.571 8.34939 15.3243 8.26006 15.1031 8.20476C14.8861 8.1452 14.6713 8.11543 14.4586 8.11543C14.2459 8.11543 14.0311 8.1452 13.8141 8.20476C13.5972 8.26006 13.3526 8.34939 13.0803 8.47276L7.20355 11.1463C7.09295 11.1974 7.03765 11.2676 7.03765 11.3569C7.03765 11.4505 7.09295 11.5228 7.20355 11.5739L13.0803 14.2474C13.3526 14.3708 13.5972 14.4623 13.8141 14.5218C14.0311 14.5771 14.2459 14.6048 14.4586 14.6048ZM8.27553 16.1553V12.7862H9.30285V16.1553C9.30285 16.4871 9.42196 16.8062 9.66018 17.1124C9.90265 17.4187 10.2493 17.6931 10.7003 17.9356C11.1512 18.1738 11.6935 18.3631 12.3274 18.5035C12.9655 18.6438 13.6759 18.714 14.4586 18.714C15.2456 18.714 15.956 18.6438 16.5898 18.5035C17.2236 18.3631 17.766 18.1738 18.2169 17.9356C18.6678 17.6931 19.0145 17.4187 19.257 17.1124C19.4995 16.8062 19.6207 16.4871 19.6207 16.1553V12.7862H20.648V16.1553C20.648 16.6317 20.5013 17.0827 20.2077 17.5081C19.9185 17.9334 19.5037 18.3078 18.9635 18.6311C18.4232 18.9586 17.7724 19.2139 17.0109 19.3968C16.2495 19.584 15.3987 19.6775 14.4586 19.6775C13.5185 19.6775 12.6677 19.584 11.9062 19.3968C11.149 19.2139 10.4982 18.9586 9.9537 18.6311C9.41345 18.3078 8.9987 17.9334 8.70943 17.5081C8.42017 17.0827 8.27553 16.6317 8.27553 16.1553ZM14.4841 12.0843C14.2587 12.0843 14.0417 12.0524 13.8333 11.9886C13.6248 11.9248 13.4547 11.8397 13.3228 11.7334C13.1909 11.6228 13.125 11.4973 13.125 11.3569C13.125 11.2208 13.1909 11.0995 13.3228 10.9932C13.4547 10.8868 13.6248 10.8039 13.8333 10.7443C14.0417 10.6805 14.2587 10.6486 14.4841 10.6486C14.7138 10.6486 14.9308 10.6805 15.135 10.7443C15.3434 10.8039 15.5114 10.8868 15.639 10.9932C15.7709 11.0995 15.8369 11.2208 15.8369 11.3569C15.8369 11.4973 15.7709 11.6228 15.639 11.7334C15.5114 11.8397 15.3434 11.9248 15.135 11.9886C14.9308 12.0524 14.7138 12.0843 14.4841 12.0843ZM10.6045 13.7689L9.77503 13.3286L14.0374 11.1081L14.3884 11.7653L10.6045 13.7689ZM9.77503 20.0285V13.3605L10.6045 13.7689V20.0285H9.77503ZM9.27095 20.1561C9.27095 19.9051 9.34539 19.7031 9.49428 19.5499C9.64742 19.401 9.84948 19.3266 10.1005 19.3266H10.2727C10.5237 19.3266 10.7237 19.401 10.8725 19.5499C11.0257 19.7031 11.1023 19.9051 11.1023 20.1561V21.8343C11.1023 22.0853 11.0257 22.2852 10.8725 22.4341C10.7237 22.5872 10.5237 22.6638 10.2727 22.6638H10.1005C9.84948 22.6638 9.64742 22.5872 9.49428 22.4341C9.34539 22.2852 9.27095 22.0853 9.27095 21.8343V20.1561Z" fill="white"/>
<defs>
<clipPath id="clip0_176_3377">
<rect width="29.04" height="29.04" fill="white" transform="translate(0.334839 0.185059)"/>
</clipPath>
</defs>
</svg>
